<?xml version="1.0" encoding="utf-8"?>
<svg xmlns="http://www.w3.org/2000/svg"
	xmlns:xlink="http://www.w3.org/1999/xlink"
	width="11px" height="10px" viewBox="0 0 11 10">
<path fillRule="evenodd" d="M 5.71 7.65C 5.71 7.65 8.97 10 8.97 10 8.97 10 7.74 6.17 7.74 6.17 7.74 6.17 11 3.91 11 3.91 11 3.91 7.03 3.91 7.03 3.91 7.03 3.91 5.71-0 5.71-0 5.71-0 4.39 3.91 4.39 3.91 4.39 3.91 0.42 3.91 0.42 3.91 0.42 3.91 3.69 6.17 3.69 6.17 3.69 6.17 2.45 10 2.45 10 2.45 10 5.71 7.65 5.71 7.65Z" fill="rgb(220,220,220)"/></svg>