<?xml version="1.0" encoding="utf-8"?>
<svg xmlns="http://www.w3.org/2000/svg"
	xmlns:xlink="http://www.w3.org/1999/xlink"
	width="12px" height="10px" viewBox="0 0 12 10">
<path fillRule="evenodd" d="M 5.86 7.65C 5.86 7.65 9.12 10 9.12 10 9.12 10 7.88 6.17 7.88 6.17 7.88 6.17 11.14 3.91 11.14 3.91 11.14 3.91 7.18 3.91 7.18 3.91 7.18 3.91 5.86-0 5.86-0 5.86-0 4.53 3.91 4.53 3.91 4.53 3.91 0.57 3.91 0.57 3.91 0.57 3.91 3.83 6.17 3.83 6.17 3.83 6.17 2.6 10 2.6 10 2.6 10 5.86 7.65 5.86 7.65Z" fill="rgb(255,174,33)"/></svg>